<mxfile host="app.diagrams.net" modified="2023-09-09T05:50:27.507Z" agent="Mozilla/5.0 (Windows NT 10.0; Win64; x64) AppleWebKit/537.36 (KHTML, like Gecko) Chrome/116.0.0.0 Safari/537.36" etag="u093cu9MmoWVa_uq0Y87" version="21.7.2" type="device">
  <diagram name="Page-1" id="LvjpsSYiFBj9zBLGzPmu">
    <mxGraphModel dx="2022" dy="632" grid="1" gridSize="10" guides="1" tooltips="1" connect="1" arrows="1" fold="1" page="1" pageScale="1" pageWidth="827" pageHeight="1169" math="0" shadow="0">
      <root>
        <mxCell id="0" />
        <mxCell id="1" parent="0" />
        <mxCell id="6JUp_6j-KVUbBdHE6NVP-1" value="" style="rounded=0;whiteSpace=wrap;html=1;" vertex="1" parent="1">
          <mxGeometry x="-33" y="50" width="873" height="480" as="geometry" />
        </mxCell>
        <mxCell id="Urzz401wbMbn4Pt66lUd-5" style="edgeStyle=orthogonalEdgeStyle;rounded=0;orthogonalLoop=1;jettySize=auto;html=1;entryX=0;entryY=0.5;entryDx=0;entryDy=0;fontSize=11;" parent="1" source="Urzz401wbMbn4Pt66lUd-2" target="Urzz401wbMbn4Pt66lUd-4" edge="1">
          <mxGeometry relative="1" as="geometry" />
        </mxCell>
        <mxCell id="Urzz401wbMbn4Pt66lUd-2" value="User" style="shape=umlActor;verticalLabelPosition=bottom;verticalAlign=top;html=1;outlineConnect=0;fontSize=11;" parent="1" vertex="1">
          <mxGeometry x="34" y="287.5" width="30" height="60" as="geometry" />
        </mxCell>
        <mxCell id="vmRqja1-odZnFc-yADqm-6" style="edgeStyle=orthogonalEdgeStyle;rounded=0;orthogonalLoop=1;jettySize=auto;html=1;entryX=0;entryY=0.5;entryDx=0;entryDy=0;fontSize=11;" parent="1" source="Urzz401wbMbn4Pt66lUd-4" target="vmRqja1-odZnFc-yADqm-2" edge="1">
          <mxGeometry relative="1" as="geometry" />
        </mxCell>
        <mxCell id="Urzz401wbMbn4Pt66lUd-4" value="Launch the app" style="ellipse;whiteSpace=wrap;html=1;fontSize=11;" parent="1" vertex="1">
          <mxGeometry x="94" y="297.5" width="100" height="40" as="geometry" />
        </mxCell>
        <mxCell id="Urzz401wbMbn4Pt66lUd-12" style="edgeStyle=orthogonalEdgeStyle;rounded=0;orthogonalLoop=1;jettySize=auto;html=1;entryX=0;entryY=0.5;entryDx=0;entryDy=0;fontSize=11;" parent="1" source="Urzz401wbMbn4Pt66lUd-6" target="Urzz401wbMbn4Pt66lUd-11" edge="1">
          <mxGeometry relative="1" as="geometry" />
        </mxCell>
        <mxCell id="Urzz401wbMbn4Pt66lUd-6" value="Take/upload picture &lt;br&gt;of food" style="ellipse;whiteSpace=wrap;html=1;fontSize=11;" parent="1" vertex="1">
          <mxGeometry x="233" y="157.5" width="120" height="40" as="geometry" />
        </mxCell>
        <mxCell id="Urzz401wbMbn4Pt66lUd-7" value="See history of calories/pictures" style="ellipse;whiteSpace=wrap;html=1;fontSize=11;" parent="1" vertex="1">
          <mxGeometry x="233" y="437.5" width="120" height="50" as="geometry" />
        </mxCell>
        <mxCell id="Urzz401wbMbn4Pt66lUd-16" style="edgeStyle=orthogonalEdgeStyle;rounded=0;orthogonalLoop=1;jettySize=auto;html=1;entryX=0;entryY=0.5;entryDx=0;entryDy=0;fontSize=11;" parent="1" source="Urzz401wbMbn4Pt66lUd-11" edge="1">
          <mxGeometry relative="1" as="geometry">
            <mxPoint x="608" y="92.5" as="targetPoint" />
            <Array as="points">
              <mxPoint x="473" y="92.5" />
            </Array>
          </mxGeometry>
        </mxCell>
        <mxCell id="Urzz401wbMbn4Pt66lUd-19" style="edgeStyle=orthogonalEdgeStyle;rounded=0;orthogonalLoop=1;jettySize=auto;html=1;entryX=0;entryY=0.5;entryDx=0;entryDy=0;fontSize=11;" parent="1" source="Urzz401wbMbn4Pt66lUd-11" target="Urzz401wbMbn4Pt66lUd-17" edge="1">
          <mxGeometry relative="1" as="geometry" />
        </mxCell>
        <mxCell id="Urzz401wbMbn4Pt66lUd-11" value="See detected food name &lt;br style=&quot;font-size: 11px;&quot;&gt;and its data" style="ellipse;whiteSpace=wrap;html=1;fontSize=11;" parent="1" vertex="1">
          <mxGeometry x="383" y="157.5" width="179" height="40" as="geometry" />
        </mxCell>
        <mxCell id="vmRqja1-odZnFc-yADqm-32" style="edgeStyle=orthogonalEdgeStyle;rounded=0;orthogonalLoop=1;jettySize=auto;html=1;entryX=0.5;entryY=0;entryDx=0;entryDy=0;" parent="1" target="Urzz401wbMbn4Pt66lUd-17" edge="1">
          <mxGeometry relative="1" as="geometry">
            <mxPoint x="683" y="117.5" as="sourcePoint" />
          </mxGeometry>
        </mxCell>
        <mxCell id="Urzz401wbMbn4Pt66lUd-13" value="Manually food name and/or data" style="ellipse;whiteSpace=wrap;html=1;fontSize=11;" parent="1" vertex="1">
          <mxGeometry x="595" y="70" width="150" height="50" as="geometry" />
        </mxCell>
        <mxCell id="Urzz401wbMbn4Pt66lUd-17" value="Log food + data consumed today" style="ellipse;whiteSpace=wrap;html=1;fontSize=11;" parent="1" vertex="1">
          <mxGeometry x="593" y="152.5" width="180" height="50" as="geometry" />
        </mxCell>
        <mxCell id="Urzz401wbMbn4Pt66lUd-20" value="Modify logged entries" style="ellipse;whiteSpace=wrap;html=1;fontSize=11;" parent="1" vertex="1">
          <mxGeometry x="453" y="437.5" width="160" height="50" as="geometry" />
        </mxCell>
        <mxCell id="vmRqja1-odZnFc-yADqm-2" value="Access the main page/dashboard" style="ellipse;whiteSpace=wrap;html=1;fontSize=11;" parent="1" vertex="1">
          <mxGeometry x="233" y="292.5" width="120" height="50" as="geometry" />
        </mxCell>
        <mxCell id="vmRqja1-odZnFc-yADqm-17" value="" style="endArrow=classic;html=1;rounded=0;exitX=0.622;exitY=0.019;exitDx=0;exitDy=0;entryX=0.627;entryY=0.99;entryDx=0;entryDy=0;exitPerimeter=0;entryPerimeter=0;fontSize=11;" parent="1" source="vmRqja1-odZnFc-yADqm-2" target="Urzz401wbMbn4Pt66lUd-6" edge="1">
          <mxGeometry width="50" height="50" relative="1" as="geometry">
            <mxPoint x="273" y="217.5" as="sourcePoint" />
            <mxPoint x="323" y="167.5" as="targetPoint" />
          </mxGeometry>
        </mxCell>
        <mxCell id="vmRqja1-odZnFc-yADqm-18" value="" style="endArrow=classic;html=1;rounded=0;exitX=0.374;exitY=0.994;exitDx=0;exitDy=0;entryX=0.373;entryY=0.011;entryDx=0;entryDy=0;exitPerimeter=0;entryPerimeter=0;fontSize=11;" parent="1" source="Urzz401wbMbn4Pt66lUd-6" target="vmRqja1-odZnFc-yADqm-2" edge="1">
          <mxGeometry width="50" height="50" relative="1" as="geometry">
            <mxPoint x="273" y="257.5" as="sourcePoint" />
            <mxPoint x="323" y="207.5" as="targetPoint" />
          </mxGeometry>
        </mxCell>
        <mxCell id="vmRqja1-odZnFc-yADqm-19" value="Cancel/back" style="text;html=1;strokeColor=none;fillColor=none;align=center;verticalAlign=middle;whiteSpace=wrap;rounded=0;fontSize=11;" parent="1" vertex="1">
          <mxGeometry x="213" y="237.5" width="50" height="9" as="geometry" />
        </mxCell>
        <mxCell id="vmRqja1-odZnFc-yADqm-20" value="" style="endArrow=classic;html=1;rounded=0;exitX=0.5;exitY=1;exitDx=0;exitDy=0;entryX=0.5;entryY=0;entryDx=0;entryDy=0;fontSize=11;" parent="1" source="vmRqja1-odZnFc-yADqm-2" target="Urzz401wbMbn4Pt66lUd-7" edge="1">
          <mxGeometry width="50" height="50" relative="1" as="geometry">
            <mxPoint x="323" y="367.5" as="sourcePoint" />
            <mxPoint x="373" y="317.5" as="targetPoint" />
          </mxGeometry>
        </mxCell>
        <mxCell id="vmRqja1-odZnFc-yADqm-21" value="" style="endArrow=classic;html=1;rounded=0;exitX=0.378;exitY=0.013;exitDx=0;exitDy=0;entryX=0.377;entryY=0.989;entryDx=0;entryDy=0;exitPerimeter=0;entryPerimeter=0;fontSize=11;" parent="1" source="Urzz401wbMbn4Pt66lUd-7" target="vmRqja1-odZnFc-yADqm-2" edge="1">
          <mxGeometry width="50" height="50" relative="1" as="geometry">
            <mxPoint x="303" y="352.5" as="sourcePoint" />
            <mxPoint x="303" y="447.5" as="targetPoint" />
          </mxGeometry>
        </mxCell>
        <mxCell id="vmRqja1-odZnFc-yADqm-22" value="Cancel/back" style="text;html=1;strokeColor=none;fillColor=none;align=center;verticalAlign=middle;whiteSpace=wrap;rounded=0;fontSize=11;" parent="1" vertex="1">
          <mxGeometry x="213" y="387.5" width="48" height="10" as="geometry" />
        </mxCell>
        <mxCell id="vmRqja1-odZnFc-yADqm-27" value="" style="endArrow=classic;html=1;rounded=0;exitX=0.038;exitY=0.312;exitDx=0;exitDy=0;exitPerimeter=0;entryX=0.96;entryY=0.301;entryDx=0;entryDy=0;entryPerimeter=0;fontSize=11;" parent="1" source="Urzz401wbMbn4Pt66lUd-20" target="Urzz401wbMbn4Pt66lUd-7" edge="1">
          <mxGeometry width="50" height="50" relative="1" as="geometry">
            <mxPoint x="463" y="447.5" as="sourcePoint" />
            <mxPoint x="513" y="397.5" as="targetPoint" />
          </mxGeometry>
        </mxCell>
        <mxCell id="vmRqja1-odZnFc-yADqm-28" value="" style="endArrow=classic;html=1;rounded=0;exitX=0.976;exitY=0.658;exitDx=0;exitDy=0;exitPerimeter=0;entryX=0.024;entryY=0.663;entryDx=0;entryDy=0;entryPerimeter=0;fontSize=11;" parent="1" source="Urzz401wbMbn4Pt66lUd-7" target="Urzz401wbMbn4Pt66lUd-20" edge="1">
          <mxGeometry width="50" height="50" relative="1" as="geometry">
            <mxPoint x="470" y="463.5" as="sourcePoint" />
            <mxPoint x="358" y="462.5" as="targetPoint" />
          </mxGeometry>
        </mxCell>
        <mxCell id="vmRqja1-odZnFc-yADqm-29" value="Cancel/back" style="text;html=1;strokeColor=none;fillColor=none;align=center;verticalAlign=middle;whiteSpace=wrap;rounded=0;fontSize=11;" parent="1" vertex="1">
          <mxGeometry x="373" y="427.5" width="60" height="30" as="geometry" />
        </mxCell>
        <mxCell id="20eXvOPc5nkfj4DNb3Fc-1" value="Manually input food &amp;amp; food data" style="ellipse;whiteSpace=wrap;html=1;fontSize=11;" parent="1" vertex="1">
          <mxGeometry x="403" y="227.5" width="120" height="50" as="geometry" />
        </mxCell>
        <mxCell id="20eXvOPc5nkfj4DNb3Fc-3" value="" style="endArrow=classic;html=1;rounded=0;exitX=0.5;exitY=1;exitDx=0;exitDy=0;entryX=0.822;entryY=0.08;entryDx=0;entryDy=0;entryPerimeter=0;" parent="1" source="Urzz401wbMbn4Pt66lUd-17" target="vmRqja1-odZnFc-yADqm-2" edge="1">
          <mxGeometry width="50" height="50" relative="1" as="geometry">
            <mxPoint x="423" y="307.5" as="sourcePoint" />
            <mxPoint x="473" y="257.5" as="targetPoint" />
            <Array as="points">
              <mxPoint x="683" y="217.5" />
              <mxPoint x="333" y="217.5" />
            </Array>
          </mxGeometry>
        </mxCell>
        <mxCell id="20eXvOPc5nkfj4DNb3Fc-6" value="" style="endArrow=classic;html=1;rounded=0;exitX=0.942;exitY=0.262;exitDx=0;exitDy=0;exitPerimeter=0;entryX=0.003;entryY=0.409;entryDx=0;entryDy=0;entryPerimeter=0;" parent="1" source="vmRqja1-odZnFc-yADqm-2" target="20eXvOPc5nkfj4DNb3Fc-1" edge="1">
          <mxGeometry width="50" height="50" relative="1" as="geometry">
            <mxPoint x="453" y="297.5" as="sourcePoint" />
            <mxPoint x="503" y="247.5" as="targetPoint" />
          </mxGeometry>
        </mxCell>
        <mxCell id="20eXvOPc5nkfj4DNb3Fc-7" value="" style="endArrow=classic;html=1;rounded=0;exitX=0.019;exitY=0.637;exitDx=0;exitDy=0;exitPerimeter=0;entryX=0.991;entryY=0.413;entryDx=0;entryDy=0;entryPerimeter=0;" parent="1" source="20eXvOPc5nkfj4DNb3Fc-1" target="vmRqja1-odZnFc-yADqm-2" edge="1">
          <mxGeometry width="50" height="50" relative="1" as="geometry">
            <mxPoint x="356" y="315.5" as="sourcePoint" />
            <mxPoint x="450" y="315.5" as="targetPoint" />
          </mxGeometry>
        </mxCell>
        <mxCell id="20eXvOPc5nkfj4DNb3Fc-8" value="View/Edit individual food entries" style="ellipse;whiteSpace=wrap;html=1;fontSize=11;" parent="1" vertex="1">
          <mxGeometry x="403" y="357.5" width="120" height="50" as="geometry" />
        </mxCell>
        <mxCell id="20eXvOPc5nkfj4DNb3Fc-9" value="" style="endArrow=classic;html=1;rounded=0;exitX=0.975;exitY=0.661;exitDx=0;exitDy=0;exitPerimeter=0;entryX=0.045;entryY=0.29;entryDx=0;entryDy=0;entryPerimeter=0;" parent="1" source="vmRqja1-odZnFc-yADqm-2" target="20eXvOPc5nkfj4DNb3Fc-8" edge="1">
          <mxGeometry width="50" height="50" relative="1" as="geometry">
            <mxPoint x="383" y="347.5" as="sourcePoint" />
            <mxPoint x="433" y="297.5" as="targetPoint" />
          </mxGeometry>
        </mxCell>
        <mxCell id="20eXvOPc5nkfj4DNb3Fc-10" value="" style="endArrow=classic;html=1;rounded=0;exitX=0;exitY=0.5;exitDx=0;exitDy=0;entryX=0.912;entryY=0.793;entryDx=0;entryDy=0;entryPerimeter=0;" parent="1" source="20eXvOPc5nkfj4DNb3Fc-8" target="vmRqja1-odZnFc-yADqm-2" edge="1">
          <mxGeometry width="50" height="50" relative="1" as="geometry">
            <mxPoint x="383" y="347.5" as="sourcePoint" />
            <mxPoint x="433" y="297.5" as="targetPoint" />
          </mxGeometry>
        </mxCell>
        <mxCell id="20eXvOPc5nkfj4DNb3Fc-11" value="Cancel/back" style="text;html=1;strokeColor=none;fillColor=none;align=center;verticalAlign=middle;whiteSpace=wrap;rounded=0;fontSize=11;" parent="1" vertex="1">
          <mxGeometry x="323" y="357.5" width="60" height="30" as="geometry" />
        </mxCell>
        <mxCell id="20eXvOPc5nkfj4DNb3Fc-12" value="Cancel/back" style="text;html=1;strokeColor=none;fillColor=none;align=center;verticalAlign=middle;whiteSpace=wrap;rounded=0;fontSize=11;" parent="1" vertex="1">
          <mxGeometry x="383" y="277.5" width="60" height="30" as="geometry" />
        </mxCell>
      </root>
    </mxGraphModel>
  </diagram>
</mxfile>
